# File created by Blade
# Date/Time:  Tue Apr 07 20:57:09 2015
# Frame Rate: 120.000 fps
#------------------------------------------------------
:FULLY-SPECIFIED
:DEGREES
250
root -18.173782 32.436974 6.599244 149.596447 -85.234008 -143.933410
Spine -6.845019 -1.622883 3.153933
Head 35.721884 2.727341 -1.581013
LeftShoulder -17.751611 42.756775 14.266172
LeftArm 74.989196 -31.624777 -73.304954
LeftForeArm -16.959086 -0.000000 6.236382
LeftHand 4.308815 -0.000000 -13.233739
LeftHandThumb1 -26.253704 0.000000 33.147579
RightShoulder -2.271507 5.188952 -25.158071
RightArm 30.512733 2.769820 60.837799
RightForeArm 3.873370 -0.000000 15.920865
RightHand 6.585781 -0.000000 11.047953
RightHandThumb1 -24.326973 -0.000000 -32.862282
LeftUpLeg -23.255455 -1.814344 6.851241
LeftLeg 5.174452 -0.000000 -0.000000
LeftFoot 11.273320 11.285399 -17.879077
LeftToeBase -9.248177 -0.000000 0.000000
RightUpLeg 10.309679 11.495203 3.690208
RightLeg 16.097877 -0.000000 -0.000000
RightFoot -3.469431 2.481370 0.633345
RightToeBase -37.010176 -0.000000 0.000000
251
root -18.410443 32.468666 6.694332 153.924694 -85.443435 -148.089719
Spine -7.041019 -1.689417 2.544582
Head 35.546310 2.533333 -1.237577
LeftShoulder -17.544684 42.544827 14.769469
LeftArm 75.247021 -32.245809 -73.431352
LeftForeArm -17.659367 -0.000000 6.619742
LeftHand 3.913619 0.000000 -12.050661
LeftHandThumb1 -26.253704 0.000000 33.147579
RightShoulder -2.371895 5.494874 -25.248921
RightArm 30.549353 3.259845 60.527042
RightForeArm 3.513999 -0.000000 16.243810
RightHand 6.624444 -0.000000 10.880114
RightHandThumb1 -24.326973 -0.000000 -32.862282
LeftUpLeg -23.023743 -1.978043 6.291301
LeftLeg 5.204426 -0.000000 -0.000000
LeftFoot 10.628729 11.203475 -17.858348
LeftToeBase -9.080548 -0.000000 0.000000
RightUpLeg 9.424538 11.007012 3.101441
RightLeg 18.143376 -0.000000 -0.000000
RightFoot -2.951637 2.515295 0.515684
RightToeBase -38.794067 -0.000000 0.000000
252
root -18.638115 32.506101 6.792772 158.707847 -85.651842 -152.722544
Spine -7.179951 -1.769541 1.935119
Head 35.335759 2.317508 -0.944257
LeftShoulder -17.369067 42.390792 15.188710
LeftArm 75.699780 -32.929768 -73.686065
LeftForeArm -17.734149 -0.000000 6.880615
LeftHand 3.892384 -0.000000 -11.330056
LeftHandThumb1 -26.253704 0.000000 33.147579
RightShoulder -2.489075 5.781295 -25.375796
RightArm 30.639580 3.713381 60.207914
RightForeArm 3.224491 -0.000000 16.536332
RightHand 6.783470 -0.000000 10.664160
RightHandThumb1 -24.326973 -0.000000 -32.862282
LeftUpLeg -22.749609 -2.128328 5.670212
LeftLeg 5.148555 -0.000000 -0.000000
LeftFoot 10.154419 11.197352 -17.702412
LeftToeBase -8.918420 -0.000000 0.000000
RightUpLeg 8.506391 10.667551 2.560718
RightLeg 20.264240 -0.000000 -0.000000
RightFoot -2.451781 2.353476 0.690235
RightToeBase -39.993922 -0.000000 0.000000
253
root -18.849678 32.544060 6.885233 163.432700 -85.800323 -157.254983
Spine -7.309400 -1.808382 1.363458
Head 35.061627 2.072383 -0.649394
LeftShoulder -17.103792 42.107435 15.727400
LeftArm 76.089259 -33.592438 -74.010408
LeftForeArm -17.480552 -0.000000 7.105104
LeftHand 4.042591 0.000000 -10.751283
LeftHandThumb1 -26.253704 0.000000 33.147579
RightShoulder -2.630908 6.058187 -25.537039
RightArm 30.715351 4.173615 59.901837
RightForeArm 2.960678 -0.000000 16.882837
RightHand 6.963500 -0.000000 10.453962
RightHandThumb1 -24.326973 -0.000000 -32.862282
LeftUpLeg -22.590075 -2.134612 5.065641
LeftLeg 5.201305 -0.000000 -0.000000
LeftFoot 9.725777 11.062124 -17.507455
LeftToeBase -8.850974 -0.000000 0.000000
RightUpLeg 7.415604 10.369895 2.077413
RightLeg 22.535062 -0.000000 -0.000000
RightFoot -1.931920 2.206639 0.825274
RightToeBase -40.376858 -0.000000 0.000000
254
root -19.060263 32.582060 6.979673 168.594748 -85.928880 -162.331738
Spine -7.302140 -1.885064 0.796767
Head 34.733473 1.871779 -0.413294
LeftShoulder -16.852511 41.886234 16.251166
LeftArm 76.459102 -34.243526 -74.312409
LeftForeArm -17.333778 -0.000000 7.379617
LeftHand 3.699536 -0.000000 -10.112373
LeftHandThumb1 -26.253704 0.000000 33.147579
RightShoulder -2.718266 6.370118 -25.769667
RightArm 30.765332 4.632563 59.634753
RightForeArm 2.681822 -0.000000 17.215049
RightHand 6.946991 0.000000 10.201833
RightHandThumb1 -24.326973 -0.000000 -32.862282
LeftUpLeg -22.323853 -2.085368 4.403915
LeftLeg 5.257167 -0.000000 -0.000000
LeftFoot 9.350182 10.903708 -17.249549
LeftToeBase -8.821200 -0.000000 0.000000
RightUpLeg 6.229703 9.740870 1.486772
RightLeg 25.120302 -0.000000 -0.000000
RightFoot -1.374668 2.335703 1.003095
RightToeBase -40.310295 -0.000000 0.000000
255
root -19.268931 32.621492 7.068028 172.481719 -85.991874 -166.220852
Spine -7.185856 -1.935998 0.354830
Head 34.414883 1.668867 -0.217618
LeftShoulder -16.568967 41.667362 16.773664
LeftArm 76.728730 -34.865078 -74.420881
LeftForeArm -17.223536 0.000000 7.691191
LeftHand 3.529167 0.000000 -9.366593
LeftHandThumb1 -26.253704 0.000000 33.147579
RightShoulder -2.787425 6.620929 -26.040101
RightArm 30.876441 5.186183 59.419956
RightForeArm 2.362830 -0.000000 17.521317
RightHand 7.120236 -0.000000 9.981183
RightHandThumb1 -24.326973 -0.000000 -32.862282
LeftUpLeg -21.957900 -1.976752 3.845105
LeftLeg 5.296040 -0.000000 -0.000000
LeftFoot 8.992224 10.685318 -16.996657
LeftToeBase -8.758833 -0.000000 0.000000
RightUpLeg 5.195103 9.381951 1.131749
RightLeg 27.530066 -0.000000 -0.000000
RightFoot -0.774872 2.138982 1.173218
RightToeBase -40.008354 -0.000000 0.000000
256
root -19.471328 32.660604 7.153316 175.540798 -85.997750 -169.336537
Spine -6.978952 -1.968863 0.006259
Head 34.056327 1.500763 -0.067813
LeftShoulder -16.232581 41.414408 17.295248
LeftArm 76.880837 -35.503811 -74.382295
LeftForeArm -17.181677 -0.000000 7.965093
LeftHand 4.014926 -0.000000 -8.605007
LeftHandThumb1 -26.253704 0.000000 33.147579
RightShoulder -2.826602 6.843687 -26.345777
RightArm 31.020309 5.627475 59.079703
RightForeArm 2.157100 -0.000000 17.813111
RightHand 7.237280 -0.000000 9.620757
RightHandThumb1 -24.326973 -0.000000 -32.862282
LeftUpLeg -21.545501 -1.871322 3.371309
LeftLeg 5.329567 -0.000000 -0.000000
LeftFoot 8.661741 10.492476 -16.717929
LeftToeBase -8.754504 -0.000000 0.000000
RightUpLeg 4.215537 9.238973 0.914367
RightLeg 29.905891 -0.000000 -0.000000
RightFoot -0.344828 1.793608 1.543776
RightToeBase -38.790476 -0.000000 0.000000
257
root -19.669029 32.698173 7.238204 178.011724 -85.942036 -171.912053
Spine -6.716467 -2.007230 -0.277122
Head 33.717644 1.391605 0.048157
LeftShoulder -15.992384 41.216685 17.742456
LeftArm 77.102149 -36.124099 -74.335106
LeftForeArm -17.200961 -0.000000 8.189632
LeftHand 4.348017 -0.000000 -8.203966
LeftHandThumb1 -26.253704 0.000000 33.147579
RightShoulder -2.819483 7.058950 -26.672804
RightArm 31.249717 6.235835 58.876884
RightForeArm 1.680584 -0.000000 18.065026
RightHand 7.352285 -0.000000 9.576462
RightHandThumb1 -24.326973 -0.000000 -32.862282
LeftUpLeg -21.079919 -1.755382 2.950755
LeftLeg 5.345979 -0.000000 -0.000000
LeftFoot 8.339956 10.344838 -16.455184
LeftToeBase -8.806160 -0.000000 0.000000
RightUpLeg 3.216866 9.107644 0.724179
RightLeg 32.334121 -0.000000 -0.000000
RightFoot 0.008798 1.490697 2.043944
RightToeBase -36.974603 -0.000000 0.000000
258
root -19.860323 32.734949 7.321015 179.620538 -85.865084 -173.647119
Spine -6.416885 -2.013697 -0.480816
Head 33.382651 1.294179 0.112656
LeftShoulder -15.716034 41.067392 18.195336
LeftArm 77.328238 -36.747728 -74.302636
LeftForeArm -17.236081 0.000000 8.489300
LeftHand 4.531012 0.000000 -7.564554
LeftHandThumb1 -26.253704 0.000000 33.147579
RightShoulder -2.838419 7.229264 -27.029371
RightArm 31.576147 6.728113 58.574132
RightForeArm 1.339789 -0.000000 18.202282
RightHand 7.498720 -0.000000 9.379695
RightHandThumb1 -24.326973 -0.000000 -32.862282
LeftUpLeg -20.615431 -1.674584 2.617574
LeftLeg 5.384693 -0.000000 -0.000000
LeftFoot 8.002675 10.225180 -16.302454
LeftToeBase -8.870067 -0.000000 0.000000
RightUpLeg 2.204470 8.976357 0.603552
RightLeg 34.749689 -0.000000 -0.000000
RightFoot 0.267683 1.097341 2.361393
RightToeBase -34.555253 -0.000000 0.000000
259
root -20.046899 32.768817 7.399629 180.596411 -85.761908 -174.799692
Spine -6.062052 -2.006564 -0.627867
Head 33.070365 1.225206 0.136529
LeftShoulder -15.480117 40.921378 18.574581
LeftArm 77.603016 -37.360025 -74.129356
LeftForeArm -17.365852 -0.000000 8.621058
LeftHand 4.938617 -0.000000 -6.876048
LeftHandThumb1 -26.253704 0.000000 33.147579
RightShoulder -2.780509 7.466651 -27.434665
RightArm 31.769729 7.151172 58.201356
RightForeArm 0.950730 -0.000000 18.410274
RightHand 7.557100 -0.000000 9.027732
RightHandThumb1 -24.326973 -0.000000 -32.862282
LeftUpLeg -20.135291 -1.531766 2.324987
LeftLeg 5.475967 -0.000000 -0.000000
LeftFoot 7.623137 10.069597 -16.249061
LeftToeBase -8.940862 -0.000000 0.000000
RightUpLeg 1.208843 8.827562 0.526884
RightLeg 37.148887 -0.000000 -0.000000
RightFoot 0.488317 0.666481 2.439959
RightToeBase -32.259089 -0.000000 0.000000
260
root -20.229303 32.801497 7.475816 181.078327 -85.654728 -175.438618
Spine -5.731163 -2.053849 -0.727812
Head 32.803234 1.191570 0.156319
LeftShoulder -15.244245 40.684694 18.997499
LeftArm 77.642502 -37.929094 -73.795376
LeftForeArm -17.666086 -0.000000 8.740812
LeftHand 5.471281 -0.000000 -7.212312
LeftHandThumb1 -26.253704 0.000000 33.147579
RightShoulder -2.724715 7.870888 -27.813592
RightArm 31.900595 7.298793 57.632084
RightForeArm 0.798940 -0.000000 18.545125
RightHand 7.711687 -0.000000 8.772986
RightHandThumb1 -24.326973 -0.000000 -32.862282
LeftUpLeg -19.707273 -1.293190 2.048034
LeftLeg 5.631951 -0.000000 -0.000000
LeftFoot 7.241123 9.822790 -16.176142
LeftToeBase -8.986627 -0.000000 0.000000
RightUpLeg 0.166828 8.665545 0.483956
RightLeg 39.496060 -0.000000 -0.000000
RightFoot 0.708598 0.183664 2.520992
RightToeBase -29.025066 -0.000000 0.000000
261
root -20.405339 32.832097 7.555092 181.802806 -85.526692 -176.318958
Spine -5.407137 -2.078342 -0.846480
Head 32.571447 1.169864 0.212605
LeftShoulder -15.092514 40.575424 19.377739
LeftArm 77.907898 -38.459215 -73.638607
LeftForeArm -17.790361 -0.000000 8.896710
LeftHand 6.037141 -0.000000 -7.112898
LeftHandThumb1 -26.253704 0.000000 33.147579
RightShoulder -2.665706 8.159871 -28.177479
RightArm 32.145789 7.468494 57.007909
RightForeArm 0.807197 -0.000000 18.666475
RightHand 7.669712 -0.000000 8.414684
RightHandThumb1 -24.326973 -0.000000 -32.862282
LeftUpLeg -19.208040 -1.217194 1.825336
LeftLeg 5.612412 -0.000000 -0.000000
LeftFoot 6.856644 9.725020 -16.366461
LeftToeBase -8.847390 -0.000000 0.000000
RightUpLeg -0.885356 8.549118 0.412872
RightLeg 41.731702 -0.000000 -0.000000
RightFoot 0.868969 -0.318869 2.884930
RightToeBase -24.907932 -0.000000 0.000000
262
root -20.575169 32.860358 7.631674 182.193734 -85.413478 -176.863646
Spine -5.092464 -2.172839 -0.914785
Head 32.379075 1.212203 0.214153
LeftShoulder -15.019352 40.472952 19.693518
LeftArm 78.054455 -38.898494 -73.262498
LeftForeArm -18.459922 -0.000000 9.035970
LeftHand 6.283126 0.000000 -6.215514
LeftHandThumb1 -26.253704 0.000000 33.147579
RightShoulder -2.570090 8.562372 -28.571451
RightArm 32.347814 7.604548 56.411495
RightForeArm 0.574071 -0.000000 18.695898
RightHand 7.955610 -0.000000 7.870791
RightHandThumb1 -24.326973 -0.000000 -32.862282
LeftUpLeg -18.745431 -1.013491 1.596369
LeftLeg 5.626271 -0.000000 -0.000000
LeftFoot 6.516531 9.489407 -16.608878
LeftToeBase -8.864544 -0.000000 0.000000
RightUpLeg -1.917185 8.398687 0.366200
RightLeg 43.796748 -0.000000 -0.000000
RightFoot 0.885550 -0.869650 3.420351
RightToeBase -20.836329 -0.000000 0.000000
